P3
7 6
255
200
0
0
200
0
0
200
0
0
200
0
0
200
0
0
200
0
0
200
0
0
200
0
0
200
0
0
200
0
0
200
0
0
200
0
0
200
0
0
200
0
0
200
0
0
200
0
0
254
254
254
254
254
254
254
254
254
200
0
0
200
0
0
200
0
0
200
0
0
254
254
254
254
254
254
254
254
254
200
0
0
200
0
0
200
0
0
200
0
0
200
0
0
200
0
0
200
0
0
200
0
0
200
0
0
200
0
0
200
0
0
200
0
0
200
0
0
200
0
0
200
0
0
200
0
0
